<?xml version="1.0"?>
<svg xmlns="http://www.w3.org/2000/svg" id="Layer_1" enable-background="new 0 0 511.336 511.336" height="512px" viewBox="0 0 511.336 511.336" width="512px" class=""><g><path d="m383.666 160.009h-117.662l-.008-96.342c-.001-17.91-21.071-27.594-34.666-15.942l-224 192c-9.769 8.372-9.776 23.511 0 31.889l224 192c13.558 11.622 34.665 2.02 34.666-15.942l.008-96.342h117.662c35.106 0 59.151 14.841 73.508 45.37 11.712 24.905 12.16 50.896 12.163 51.09.066 11.555 9.451 20.881 20.998 20.88 11.563 0 21.001-9.366 21.001-21v-160c0-70.392-57.273-127.661-127.67-127.661z" data-original="#000000" class="active-path" data-old_color="#000000" fill="#FFFFFF"/></g> </svg>
