<?xml version="1.0"?>
<svg xmlns="http://www.w3.org/2000/svg" xmlns:xlink="http://www.w3.org/1999/xlink" version="1.1" id="Capa_1" x="0px" y="0px" viewBox="0 0 512 512" style="enable-background:new 0 0 512 512;" xml:space="preserve" width="512px" height="512px" class=""><g><g>
	<g>
		<path d="M407,256c-69.307,0-125.911-52.685-133.484-120H45c-24.814,0-45,20.186-45,45v270c0,24.814,20.186,45,45,45h392    c24.814,0,45-20.186,45-45V233.147C460.529,247.552,434.742,256,407,256z M347,286c8.284,0,15,6.716,15,15s-6.716,15-15,15    s-15-6.716-15-15S338.716,286,347,286z M287,286c8.284,0,15,6.716,15,15s-6.716,15-15,15s-15-6.716-15-15S278.716,286,287,286z     M210,421c0,8.291-6.709,15-15,15H75c-8.291,0-15-6.709-15-15v-30c0-25.845,13.141-48.68,33.096-62.173    C81.96,317.928,75,302.782,75,286c0-33.091,26.909-60,60-60s60,26.909,60,60c0,16.782-6.96,31.928-18.096,42.827    C196.859,342.32,210,365.155,210,391V421z M407,436H287c-8.291,0-15-6.709-15-15c0-8.291,6.709-15,15-15h120    c8.291,0,15,6.709,15,15C422,429.291,415.291,436,407,436z M407,376H287c-8.291,0-15-6.709-15-15c0-8.291,6.709-15,15-15h120    c8.291,0,15,6.709,15,15C422,369.291,415.291,376,407,376z M407,316c-8.284,0-15-6.716-15-15s6.716-15,15-15s15,6.716,15,15    S415.284,316,407,316z" data-original="#000000" class="active-path" data-old_color="#000000" fill="#FFFFFF"/>
	</g>
</g><g>
	<g>
		<path d="M135,256c-16.538,0-30,13.462-30,30c0,16.538,13.462,30,30,30s30-13.462,30-30C165,269.462,151.538,256,135,256z" data-original="#000000" class="active-path" data-old_color="#000000" fill="#FFFFFF"/>
	</g>
</g><g>
	<g>
		<path d="M135,346c-24.814,0-45,20.186-45,45v15h90v-15C180,366.186,159.814,346,135,346z" data-original="#000000" class="active-path" data-old_color="#000000" fill="#FFFFFF"/>
	</g>
</g><g>
	<g>
		<path d="M406,16c-57.891,0-104,47.109-104,105s47.109,105,105,105s105-47.109,105-105S463.891,16,406,16z M462.605,101.605l-60,60    c-5.859,5.859-15.352,5.859-21.211,0l-30-30c-5.859-5.859-5.859-15.352,0-21.211c5.859-5.859,15.352-5.859,21.211,0L392,129.789    l49.395-49.395c5.859-5.859,15.352-5.859,21.211,0S468.465,95.746,462.605,101.605z" data-original="#000000" class="active-path" data-old_color="#000000" fill="#FFFFFF"/>
	</g>
</g></g> </svg>
