<?xml version="1.0"?>
<svg xmlns="http://www.w3.org/2000/svg" id="Capa_1" enable-background="new 0 0 511.999 511.999" height="512px" viewBox="0 0 511.999 511.999" width="512px" class=""><g><path d="m476.454 100.526-34.711-34.71c-22.922-22.923-53.398-35.547-85.815-35.547s-62.893 12.625-85.812 35.547c-22.92 22.92-35.543 53.395-35.543 85.811-.001 21.681 5.652 42.487 16.25 60.752l-90.062 90.063-39.824-52.078c-9.794-12.815-19.965-10.787-23.883-9.32s-12.92 6.614-11.895 22.712l1.029 16.11-16.106-1.026c-8.582-.548-16.879 2.518-22.778 8.416-5.9 5.898-8.971 14.202-8.425 22.783l1.028 16.109-16.111-1.027c-16.09-1.027-21.242 7.974-22.709 11.891s-3.498 14.085 9.312 23.887l55.007 42.075c-3.18 7.096-4.868 14.842-4.868 22.852 0 14.934 5.815 28.973 16.375 39.532 10.559 10.559 24.598 16.374 39.531 16.374 14.935 0 28.974-5.815 39.53-16.374l173.917-173.915c18.265 10.598 39.071 16.252 60.751 16.252 32.414 0 62.891-12.624 85.812-35.547 22.922-22.919 35.545-53.395 35.545-85.811s-12.623-62.893-35.545-85.811zm-46.761 124.862c-20.77 20.768-54.44 20.767-75.207 0-6.85-6.854-11.43-15.111-13.759-23.847-8.735-2.328-16.993-6.904-23.845-13.757-20.768-20.771-20.768-54.439-.002-75.207 20.77-20.768 54.439-20.77 75.209-.002 6.852 6.854 11.428 15.108 13.756 23.845 8.734 2.331 16.994 6.91 23.848 13.76 20.767 20.765 20.767 54.437 0 75.208z" data-original="#000000" class="active-path" data-old_color="#000000" fill="#FFFFFF"/></g> </svg>
