<?xml version="1.0"?>
<svg xmlns="http://www.w3.org/2000/svg" height="512px" viewBox="0 -4 512 512" width="512px" class=""><g><path d="m29.714844 426.105469v-299.6875h-14.714844c-8.285156 0-15 6.714843-15 15v347.898437c0 8.285156 6.714844 15 15 15h359.773438c8.285156 0 15-6.714844 15-15v-19.210937h-316.058594c-24.261719 0-44-19.738281-44-44zm0 0" data-original="#000000" class="active-path" data-old_color="#000000" fill="#FFFFFF"/><path d="m93.226562 362.898438v-299.6875h-19.511718c-8.285156 0-15 6.714843-15 15v347.894531c0 8.285156 6.714844 15 15 15h359.773437c8.285157 0 15-6.714844 15-15v-19.207031h-311.261719c-24.261718 0-44-19.738282-44-44zm0 0" data-original="#000000" class="active-path" data-old_color="#000000" fill="#FFFFFF"/><path d="m183.660156 377.898438h313.339844c8.285156 0 15-6.714844 15-15v-46.507813l-172.242188-148.929687zm0 0" data-original="#000000" class="active-path" data-old_color="#000000" fill="#FFFFFF"/><path d="m233.203125 84.25c-12.855469 0-23.316406 10.378906-23.316406 23.136719 0 12.753906 10.460937 23.132812 23.316406 23.132812 12.859375 0 23.316406-10.378906 23.316406-23.132812 0-12.757813-10.457031-23.136719-23.316406-23.136719zm0 0" data-original="#000000" class="active-path" data-old_color="#000000" fill="#FFFFFF"/><path d="m497 0h-359.773438c-8.285156 0-15 6.714844-15 15v347.898438c0 8.285156 6.714844 15 15 15h9.082032l178.941406-241.292969c2.484375-3.359375 6.257812-5.53125 10.40625-5.996094 4.148438-.460937 8.3125.832031 11.472656 3.566406l164.871094 142.554688v-261.730469c0-8.285156-6.714844-15-15-15zm-263.796875 160.519531c-29.398437 0-53.316406-23.835937-53.316406-53.132812 0-29.300781 23.917969-53.136719 53.316406-53.136719s53.316406 23.835938 53.316406 53.136719c0 29.296875-23.917969 53.132812-53.316406 53.132812zm0 0" data-original="#000000" class="active-path" data-old_color="#000000" fill="#FFFFFF"/></g> </svg>
