<?xml version="1.0"?>
<svg xmlns="http://www.w3.org/2000/svg" height="512px" viewBox="0 -21 384 384" width="512px" class=""><g><path d="m362.667969 0h-341.335938c-11.753906 0-21.332031 9.578125-21.332031 21.332031v42.667969c0 11.753906 9.578125 21.332031 21.332031 21.332031h341.335938c11.753906 0 21.332031-9.578125 21.332031-21.332031v-42.667969c0-11.753906-9.578125-21.332031-21.332031-21.332031zm0 0" data-original="#000000" class="active-path" data-old_color="#000000" fill="#FFFFFF"/><path d="m362.667969 128h-341.335938c-11.753906 0-21.332031 9.578125-21.332031 21.332031v42.667969c0 11.753906 9.578125 21.332031 21.332031 21.332031h341.335938c11.753906 0 21.332031-9.578125 21.332031-21.332031v-42.667969c0-11.753906-9.578125-21.332031-21.332031-21.332031zm0 0" data-original="#000000" class="active-path" data-old_color="#000000" fill="#FFFFFF"/><path d="m362.667969 256h-341.335938c-11.753906 0-21.332031 9.578125-21.332031 21.332031v42.667969c0 11.753906 9.578125 21.332031 21.332031 21.332031h341.335938c11.753906 0 21.332031-9.578125 21.332031-21.332031v-42.667969c0-11.753906-9.578125-21.332031-21.332031-21.332031zm0 0" data-original="#000000" class="active-path" data-old_color="#000000" fill="#FFFFFF"/></g> </svg>
