<svg xmlns="http://www.w3.org/2000/svg" xmlns:xlink="http://www.w3.org/1999/xlink" width="512.031" height="512" viewBox="0 0 512.031 512"><defs><clipPath id="a"><path d="M2242.4,1296.866c3.3,3.465,128.775-53.133,128.745-24.869l2.438,409.71s21.652,10.46,39.839,10.46,43.92-12.755,43.92-12.755L2455.694,1272c.451-25.894,113.618,30.344,119.673,26.326s13.116-88.649-7.97-94.273c0,0-70.693-23.473-153.978-23.878s-164.3,26.276-164.3,26.276C2239.561,1209,2239.1,1293.4,2242.4,1296.866Z" transform="translate(-2240.545 -1180.167)" fill="none" stroke="#707070" stroke-linejoin="round" stroke-width="0.5"/></clipPath></defs><g transform="translate(-146.989 -149.167)"><g transform="translate(147.096 182.642)"><path d="M2303.675,1184.286s-17.846,106.455,12.444,125,106.541,38.1,106.541,38.1v68.308s-174.03-33.265-181.262-45.789-14.7-142.811-11.568-151.807S2303.675,1184.286,2303.675,1184.286Z" transform="translate(-2229.096 -1183.997)" fill="#ebebeb" stroke="rgba(112,112,112,0.12)" stroke-linejoin="round" stroke-width="0.2"/><path d="M2303.908,1185.251c7.877,30.951,10.754,77.364-21.976,150.519,0,0,2.479,8.049,35.4,21.217s47.917,11.34,47.917,11.34c3.658-12.072,10.462-60.208,12.363-89.4s1.02-28.172,0-58.973C2377.292,1210.3,2303.908,1185.251,2303.908,1185.251Z" transform="translate(-1866.731 -1185.251)" fill="#ebebeb" stroke="rgba(112,112,112,0.12)" stroke-linejoin="round" stroke-width="0.2"/><path d="M2269.285,1209.594l173.033,44.9c-25.984,99.73-79.245,185.8-173.033,239.532v-89.46c72.813-40.968,82.261-105.566,82.261-105.566l-82.261-19.658Z" transform="translate(-1949.556 -1036.95)" fill="#ebebeb" stroke="rgba(112,112,112,0.12)" stroke-linejoin="round" stroke-width="0.2"/><path d="M2407.225,1348.118v90.72c-45.9-23.955-142.525-73.565-174.669-221.309l90.456,22.981C2319.609,1314.258,2407.225,1348.118,2407.225,1348.118Z" transform="translate(-2212.395 -979.853)" fill="#ebebeb" stroke="rgba(112,112,112,0.12)" stroke-linejoin="round" stroke-width="0.2"/></g><g transform="translate(232.011 149.167)" clip-path="url(#a)"><g transform="translate(-38.522 -54.073)"><path d="M2564.743,1206.9l-59.344-33.233-92.15,76.978,136.024,27.846Z" transform="translate(-2303.388 -1172.621)" fill="#ff3b3b"/><path d="M2461.172,1220.985l38.459,230.724-77.75-7.128Z" transform="translate(-2241.274 -833.843)" fill="#ff2828"/><path d="M2427.5,1317.269l99.057,31.314,1.588-111.685-109.3-31.029Z" transform="translate(-2263.131 -942.063)" fill="#ff4848"/><path d="M2519,1316.219l-40.907-48.7-59.09-25.21,3.682-40.51,156.919,45.681Z" transform="translate(-2261.991 -971.18)" fill="#ff2828"/><path d="M2523.13,1311.523,2412.743,1195.6l297.723,39.888Z" transform="translate(-2307.029 -1015.611)" fill="#ff3b3b"/><path d="M2424.188,1295.99l56.751-53.319-61.468-23.918Z" transform="translate(-2258.607 -849.817)" fill="#ff6262"/><path d="M2448.3,1441.03l25.813-152.082,11.232-62.539-.989-4.91-65.79,65.923V1441.03Z" transform="translate(-2265.115 -830.152)" fill="#ff4848"/><path d="M2448.733,1361.921l16.987-15.081,4.991-111.717-44.117-13.588Z" transform="translate(-2207.346 -829.91)" fill="#ff3b3b"/><path d="M2442.605,1337.74h32.336l-29-100.87-16.666,15.3Z" transform="translate(-2188.083 -720.105)" fill="#ff5353"/><path d="M2429.356,1237.919l16.991-59.047,266.433,20.309-67.963,163.7Z" transform="translate(-2187.47 -1135.363)" fill="#ff2828"/><path d="M2429.952,1297.642l87.228-45.938,90.018-78.163-207.351,10.654Z" transform="translate(-2399.846 -1173.541)" fill="#ff4848"/><path d="M2438.4,1183.119l126.058,24.089-153.632,76.472Z" transform="translate(-2320.791 -1104.957)" fill="#ff2828"/><path d="M2410.816,1262.506l153.456-76.493,222.983,129.066Z" transform="translate(-2320.902 -1084.242)" fill="#ff4848"/><path d="M2403.344,1236.013l4.243,80.125h54l41.363-134.186Z" transform="translate(-2374.668 -1113.323)" fill="#ff3535"/></g></g></g></svg>